<svg width="1440" height="1024" viewBox="0 0 1440 1024" fill="none" xmlns="http://www.w3.org/2000/svg">
<rect width="1440" height="1024" fill="#2D0F01"/>
<path d="M462.989 713.45C463.739 718.821 461.948 724.614 457.741 730.989C437.191 761.688 360.973 802.661 277.51 840.869C200.897 875.872 118.337 908.64 66.7679 929.232C8.52538 952.33 -261.211 1059.91 -292.7 1014.92C-308.165 992.724 -310.379 965.007 -310.379 965.007C-310.909 958.019 -310.538 951.592 -309.923 946.117C-309.507 941.8 -308.811 938.147 -308.012 935.115L-307.522 935.535C-299.774 941.177 -291.859 946.005 -283.816 949.51C-260.701 960.215 -237.64 961.896 -217.656 953.925L-175.853 937.273C-182.718 925.165 -189.632 913.175 -196.405 900.775C-201.367 891.894 -206.097 883.053 -210.827 874.212C-245.582 810.277 -277.74 747.402 -307.472 685.601C-305.228 685.031 -303.009 684.12 -300.9 683.275C-292.297 679.823 -284.078 675.829 -276.423 671.192C-227.039 642.137 -194.86 591.302 -185.212 533.717C-178.7 494.368 -182.667 451.814 -198.971 410.994C-200.384 407.444 -201.967 403.907 -203.489 400.422C-162.035 361.055 -147.588 295.106 -171.932 234.211C-156.192 227.59 -146.565 224.061 -146.565 224.061C-146.565 224.061 -124.013 216.01 -90.526 207.358C-43.7999 195.304 24.3063 182.373 82.8839 189.363C96.6242 191.064 109.812 193.779 121.957 197.83C121.957 197.83 145.914 206.814 166.991 225.331C220.001 272.055 255.787 502.074 304.171 669.657C305.931 675.523 307.738 682.015 309.689 688.895C309.593 692.159 309.173 695.677 308.368 699.395C302.076 726.556 276.479 739.695 271.24 742.263C244.128 755.802 216.264 769.227 187.189 782.515C130.247 808.429 75.1014 830.892 22.0854 850.508C20.2657 850.646 18.7553 851.846 17.9445 853.221C17.1776 854.422 17.1017 855.685 17.3145 856.983C18.094 859.724 21.2628 861.541 24.3826 860.447C37.8414 856.171 232.7 777.067 258.234 766.104C275.519 758.738 319.541 740.432 357.122 724.671L366.894 720.788C369.169 719.872 371.322 718.852 373.467 717.718C396.68 705.56 412.924 679.93 419.365 645.673L419.431 645.039C424.855 648.685 433.048 654.921 440.979 664.491C440.979 664.491 459.116 686.487 463.168 713.55L462.989 713.45Z" fill="#3F1B08" fill-opacity="0.52"/>
<path d="M1734.99 621.45C1735.74 626.821 1733.95 632.614 1729.74 638.989C1709.19 669.688 1632.97 710.661 1549.51 748.869C1472.9 783.872 1390.34 816.64 1338.77 837.232C1280.53 860.33 1010.79 967.906 979.3 922.923C963.835 900.724 961.621 873.007 961.621 873.007C961.091 866.019 961.462 859.592 962.077 854.117C962.493 849.8 963.189 846.147 963.988 843.115L964.478 843.535C972.226 849.177 980.141 854.005 988.184 857.51C1011.3 868.215 1034.36 869.896 1054.34 861.925L1096.15 845.273C1089.28 833.165 1082.37 821.175 1075.6 808.775C1070.63 799.894 1065.9 791.053 1061.17 782.212C1026.42 718.277 994.26 655.402 964.528 593.601C966.772 593.031 968.991 592.12 971.1 591.275C979.703 587.823 987.922 583.829 995.577 579.192C1044.96 550.137 1077.14 499.302 1086.79 441.716C1093.3 402.368 1089.33 359.814 1073.03 318.994C1071.62 315.444 1070.03 311.907 1068.51 308.422C1109.96 269.055 1124.41 203.106 1100.07 142.211C1115.81 135.59 1125.43 132.061 1125.43 132.061C1125.43 132.061 1147.99 124.01 1181.47 115.358C1228.2 103.304 1296.31 90.373 1354.88 97.3627C1368.62 99.0643 1381.81 101.779 1393.96 105.83C1393.96 105.83 1417.91 114.814 1438.99 133.331C1492 180.055 1527.79 410.074 1576.17 577.657C1577.93 583.523 1579.74 590.015 1581.69 596.895C1581.59 600.159 1581.17 603.677 1580.37 607.395C1574.08 634.556 1548.48 647.695 1543.24 650.263C1516.13 663.802 1488.26 677.227 1459.19 690.515C1402.25 716.429 1347.1 738.892 1294.09 758.508C1292.27 758.646 1290.76 759.846 1289.94 761.221C1289.18 762.422 1289.1 763.685 1289.31 764.983C1290.09 767.724 1293.26 769.541 1296.38 768.447C1309.84 764.171 1504.7 685.067 1530.23 674.104C1547.52 666.738 1591.54 648.432 1629.12 632.671L1638.89 628.788C1641.17 627.872 1643.32 626.852 1645.47 625.718C1668.68 613.56 1684.92 587.93 1691.36 553.673L1691.43 553.039C1696.85 556.685 1705.05 562.921 1712.98 572.491C1712.98 572.491 1731.12 594.487 1735.17 621.55L1734.99 621.45Z" fill="#3F1B08" fill-opacity="0.52"/>
<path d="M992.927 541.637C990.029 546.221 984.919 549.485 977.589 551.633C942.07 561.785 857.423 543.812 769.035 519.047C687.944 496.262 603.76 467.929 551.095 450.326C491.718 430.323 216.338 338.148 221.369 283.47C223.909 256.535 240.127 233.95 240.127 233.95C244.238 228.274 248.674 223.608 252.68 219.826C255.787 216.8 258.678 214.462 261.247 212.665L261.35 213.302C263.618 222.613 266.539 231.412 270.414 239.284C281.14 262.39 297.654 278.573 318.057 285.402L360.722 299.701C363.305 286.024 365.776 272.406 368.618 258.566C370.569 248.582 372.671 238.777 374.773 228.973C389.556 157.72 405.636 88.9539 422.874 22.5745C424.956 23.5896 427.238 24.3278 429.394 25.0453C438.19 27.9693 447.043 30.2312 455.882 31.6383C512.347 41.3706 569.752 23.3616 614.323 -14.3557C644.717 -40.1804 669.184 -75.2232 683.115 -116.913C684.33 -120.535 685.407 -124.257 686.496 -127.9C743.572 -131.163 797.209 -172.163 817.974 -234.37C834.266 -229.253 843.893 -225.727 843.893 -225.727C843.893 -225.727 866.308 -217.3 897.456 -202.267C940.908 -181.277 1001.24 -147.142 1041.44 -103.959C1050.82 -93.7824 1059.14 -83.1894 1065.79 -72.2503C1065.79 -72.2503 1078.27 -49.914 1082.39 -22.1638C1092.66 47.7481 971.355 246.43 900.006 405.597C897.559 411.212 894.744 417.334 891.787 423.846C889.605 426.276 887.012 428.689 883.996 431.006C861.644 447.672 833.618 441.161 827.96 439.736C798.519 432.552 768.578 424.796 737.801 416.152C677.598 399.138 620.995 380.653 567.857 361.37C566.379 360.299 564.451 360.239 562.943 360.765C561.582 361.187 560.708 362.101 560.031 363.23C558.856 365.825 560.1 369.259 563.188 370.44C576.223 375.872 776.057 441.399 802.629 449.529C820.581 455.075 866.009 469.547 904.875 481.799L914.842 485.148C917.17 485.92 919.473 486.533 921.842 487.053C947.415 492.772 976.373 483.706 1003.42 461.72L1003.88 461.28C1005.67 467.567 1007.89 477.62 1007.76 490.048C1007.76 490.048 1007.39 518.556 992.999 541.829L992.927 541.637Z" fill="#3F1B08" fill-opacity="0.52"/>
<path d="M1135.99 1095.45C1136.74 1100.82 1134.95 1106.61 1130.74 1112.99C1110.19 1143.69 1033.97 1184.66 950.51 1222.87C873.897 1257.87 791.337 1290.64 739.768 1311.23C681.525 1334.33 411.789 1441.91 380.3 1396.92C364.835 1374.72 362.621 1347.01 362.621 1347.01C362.091 1340.02 362.462 1333.59 363.077 1328.12C363.493 1323.8 364.189 1320.15 364.988 1317.12L365.478 1317.54C373.226 1323.18 381.141 1328.01 389.184 1331.51C412.299 1342.21 435.36 1343.9 455.344 1335.93L497.147 1319.27C490.282 1307.17 483.368 1295.18 476.595 1282.77C471.633 1273.89 466.903 1265.05 462.173 1256.21C427.418 1192.28 395.26 1129.4 365.528 1067.6C367.772 1067.03 369.991 1066.12 372.1 1065.27C380.703 1061.82 388.922 1057.83 396.577 1053.19C445.961 1024.14 478.14 973.302 487.788 915.717C494.3 876.368 490.333 833.814 474.029 792.994C472.616 789.444 471.033 785.907 469.511 782.422C510.965 743.055 525.412 677.106 501.068 616.211C516.808 609.59 526.435 606.061 526.435 606.061C526.435 606.061 548.987 598.01 582.474 589.358C629.2 577.304 697.306 564.373 755.884 571.363C769.624 573.064 782.812 575.779 794.957 579.83C794.957 579.83 818.914 588.814 839.991 607.331C893.001 654.055 928.787 884.074 977.171 1051.66C978.931 1057.52 980.738 1064.01 982.689 1070.9C982.593 1074.16 982.173 1077.68 981.368 1081.39C975.076 1108.56 949.479 1121.69 944.24 1124.26C917.128 1137.8 889.264 1151.23 860.189 1164.52C803.247 1190.43 748.101 1212.89 695.085 1232.51C693.266 1232.65 691.755 1233.85 690.944 1235.22C690.178 1236.42 690.102 1237.69 690.314 1238.98C691.094 1241.72 694.263 1243.54 697.383 1242.45C710.841 1238.17 905.7 1159.07 931.234 1148.1C948.519 1140.74 992.541 1122.43 1030.12 1106.67L1039.89 1102.79C1042.17 1101.87 1044.32 1100.85 1046.47 1099.72C1069.68 1087.56 1085.92 1061.93 1092.36 1027.67L1092.43 1027.04C1097.85 1030.69 1106.05 1036.92 1113.98 1046.49C1113.98 1046.49 1132.12 1068.49 1136.17 1095.55L1135.99 1095.45Z" fill="#3F1B08" fill-opacity="0.52"/>
</svg>
