<svg width="281" height="78" viewBox="0 0 281 78" fill="none" xmlns="http://www.w3.org/2000/svg">
<g clip-path="url(#clip0_2_3)">
<path d="M79.9675 39.245H63.932V2.60226H81.3627C82.8166 2.60226 84.1781 2.68675 85.4304 2.85573C86.6826 3.02471 87.8845 3.32042 89.0359 3.73441C90.1873 4.14841 91.1706 4.68069 91.9858 5.31435C92.801 5.95647 93.4481 6.77601 93.9272 7.78142C94.4062 8.78684 94.65 9.93589 94.65 11.2286C94.65 13.4084 93.7759 15.1235 92.0278 16.3739C90.2797 17.6244 87.4558 18.3341 83.5394 18.503V19.1452C88.6072 18.8579 92.3304 19.5085 94.7088 21.1137C97.0872 22.719 98.2807 25.0763 98.2807 28.1939C98.2807 29.6049 98.0537 30.8806 97.6083 32.0128C97.1629 33.1449 96.583 34.0912 95.877 34.8516C95.171 35.612 94.2886 36.2626 93.238 36.8202C92.1791 37.3778 91.1369 37.8003 90.1116 38.096C89.0863 38.3917 87.9181 38.6367 86.6154 38.8141C85.3127 38.9916 84.1697 39.1098 83.1864 39.1605C82.2031 39.2112 81.1273 39.2366 79.9591 39.2366L79.9675 39.245ZM76.2864 11.5243V16.9147H79.2868C80.8668 16.9147 82.0434 16.7034 82.8166 16.2725C83.5982 15.8501 83.9848 15.1488 83.9848 14.1772C83.9848 13.2056 83.6066 12.5212 82.8418 12.1241C82.077 11.727 80.892 11.5243 79.2868 11.5243H76.2864ZM76.2864 22.964V28.76H80.6567C82.6401 28.76 84.0353 28.4981 84.8505 27.9827C85.6657 27.4673 86.0691 26.7153 86.0691 25.7437C86.0691 23.885 84.5227 22.9556 81.4215 22.9556H76.2864V22.964Z" fill="#FFF8F5"/>
<path d="M122.284 39.8787C125.385 39.8787 127.763 38.7634 129.427 36.5329C131.091 34.3024 131.915 30.7116 131.915 25.7522V7.84054H119.745V18.9762C119.745 19.8126 119.745 20.5054 119.72 21.0461C119.703 21.5869 119.653 22.2121 119.577 22.8964C119.502 23.5892 119.384 24.1469 119.224 24.5862C119.065 25.0171 118.855 25.4395 118.586 25.8366C118.317 26.2337 117.98 26.5294 117.552 26.7153C117.132 26.9012 116.636 26.9941 116.081 26.9941C115.61 26.9941 115.199 26.9434 114.862 26.8252C114.526 26.7153 114.165 26.4534 113.778 26.031C113.392 25.6085 113.089 25.0424 112.862 24.3074C112.635 23.5723 112.442 22.55 112.282 21.232C112.123 19.914 112.039 18.3256 112.039 16.4668V7.83209H99.8439V39.2281H112.198L110.215 21.3925H110.744C111.097 24.8481 111.551 27.7207 112.106 30.0019C112.661 32.2831 113.392 34.1757 114.308 35.688C115.224 37.1919 116.316 38.2734 117.602 38.907C118.88 39.5492 120.443 39.8618 122.292 39.8618L122.284 39.8787Z" fill="#FFF8F5"/>
<path d="M150.724 39.8787C148.119 39.8787 145.715 39.4562 143.53 38.6114C141.345 37.7665 139.521 36.609 138.05 35.1389C136.588 33.6688 135.453 31.9283 134.646 29.9428C133.84 27.9489 133.436 25.8029 133.436 23.5048C133.436 21.2067 133.84 19.1451 134.655 17.1681C135.47 15.1911 136.605 13.4675 138.059 11.9974C139.512 10.5273 141.336 9.36135 143.521 8.50802C145.706 7.65468 148.102 7.23224 150.715 7.23224C152.716 7.23224 154.581 7.5195 156.321 8.08557C158.061 8.6601 159.414 9.29376 160.397 9.98657V22.812H159.733C156.582 20.1252 153.539 18.7734 150.606 18.7734C149.909 18.7734 149.253 18.8579 148.623 19.0269C147.992 19.1958 147.404 19.4578 146.841 19.8211C146.278 20.1844 145.833 20.6744 145.496 21.3165C145.16 21.9586 144.992 22.7021 144.992 23.5555C144.992 24.6792 145.286 25.6254 145.883 26.3774C146.471 27.1378 147.177 27.6532 147.976 27.932C148.782 28.2108 149.657 28.3544 150.606 28.3544C153.539 28.3544 156.582 27.0111 159.733 24.3159H160.397V37.1412C159.431 37.8425 158.078 38.4677 156.33 39.0338C154.581 39.5914 152.716 39.8787 150.715 39.8787H150.724Z" fill="#FFF8F5"/>
<path d="M195.578 38.3494V39.245H182.165L177.156 26.9097L174.769 29.5119V39.245H174.718V77.3579H162.448V38.1129H162.49V0H174.819L173.113 23.7582H173.617C173.962 21.4601 174.449 19.3395 175.097 17.3962C175.744 15.453 176.408 13.9237 177.088 12.8C177.778 11.6763 178.442 10.7216 179.08 9.92743C179.727 9.12478 180.248 8.58406 180.66 8.27145L181.274 7.84055H194.813V8.73614L185.434 19.1029L195.57 38.3494H195.578Z" fill="#FFF8F5"/>
<path d="M209.277 39.8787C206.672 39.8787 204.251 39.4562 202.033 38.6114C199.814 37.7665 197.956 36.6174 196.452 35.1473C194.956 33.6857 193.779 31.9452 192.931 29.9344C192.082 27.9235 191.662 25.7775 191.662 23.4963C191.662 21.2151 192.048 19.1536 192.83 17.1597C193.611 15.1657 194.696 13.4422 196.082 11.9721C197.469 10.5104 199.175 9.3529 201.201 8.49957C203.226 7.64623 205.42 7.22379 207.798 7.22379C209.798 7.22379 211.681 7.5195 213.454 8.10247C215.227 8.69389 216.791 9.53033 218.144 10.6202C219.497 11.7101 220.573 13.1042 221.363 14.8109C222.153 16.5175 222.548 18.4101 222.548 20.5054C222.548 21.646 222.413 22.964 222.144 24.4679L202.881 23.5977C203.066 25.3213 203.848 26.5886 205.235 27.4166C206.613 28.2446 208.344 28.6586 210.429 28.6586C214.227 28.6586 217.555 27.6278 220.413 25.5663H221.102V37.1412C219.799 37.9439 218.11 38.5945 216.043 39.1098C213.975 39.6168 211.723 39.8787 209.286 39.8787H209.277ZM203.276 20.7673L212.067 20.3111C211.815 19.5253 211.328 18.9086 210.605 18.4608C209.882 18.013 209.008 17.7849 207.974 17.7849C206.941 17.7849 206.025 18.0383 205.176 18.5368C204.327 19.0438 203.697 19.7873 203.268 20.7758L203.276 20.7673Z" fill="#FFF8F5"/>
<path d="M243.13 27.6616C242.55 28.5572 241.844 28.9965 241.012 28.9965C240.045 28.9965 239.373 28.6839 238.987 28.0503C238.6 27.4251 238.398 26.521 238.398 25.372V2.60226H229.145C229.145 4.66379 228.632 6.117 227.615 6.96188C226.59 7.80677 224.985 8.22076 222.8 8.22076V15.2249H226.128V29.1993C226.128 32.4268 227.01 35.0037 228.775 36.9554C230.532 38.9071 232.994 39.8871 236.171 39.8871C239.348 39.8871 241.878 39.0085 243.769 37.2595V27.6701H243.138L243.13 27.6616Z" fill="#FFF8F5"/>
<path d="M265.796 39.8787C261.073 39.8787 256.896 38.9662 253.266 37.1412V24.4679H254.056C257.359 27.7883 261.401 29.4528 266.175 29.4528C267.124 29.4528 267.872 29.3514 268.427 29.1486C268.973 28.9458 269.251 28.667 269.251 28.3037C269.251 28.0672 269.015 27.8644 268.536 27.7039C268.066 27.5433 267.444 27.4081 266.671 27.3068C265.897 27.2054 265.023 27.0533 264.04 26.859C263.057 26.6646 262.048 26.445 261.014 26.2084C259.981 25.9718 258.972 25.6001 257.989 25.1101C257.006 24.62 256.131 24.0455 255.358 23.3865C254.585 22.7275 253.963 21.8741 253.492 20.818C253.022 19.7619 252.778 18.5622 252.778 17.2188C252.778 15.5797 253.165 14.1181 253.938 12.8085C254.711 11.5074 255.745 10.4513 257.048 9.65706C258.35 8.85442 259.821 8.25455 261.46 7.84055C263.099 7.43501 264.838 7.22379 266.679 7.22379C271.1 7.22379 275.268 8.27145 279.185 10.3668V21.5024H278.495C276.974 20.159 275.092 19.0776 272.856 18.2665C270.621 17.4554 268.36 17.0498 266.074 17.0498C263.788 17.0498 262.796 17.4638 262.796 18.3003C262.796 18.6213 263.132 18.8917 263.796 19.1029C264.469 19.3141 265.334 19.5 266.402 19.6521C267.469 19.8042 268.654 19.9816 269.948 20.1928C271.243 20.3956 272.537 20.7082 273.839 21.1391C275.134 21.5615 276.319 22.0854 277.386 22.6937C278.453 23.3104 279.319 24.1638 279.991 25.2621C280.664 26.3605 280.992 27.6363 280.992 29.081C280.992 31.5312 280.319 33.5843 278.983 35.2234C277.647 36.8709 275.865 38.0537 273.646 38.7719C271.427 39.4985 268.805 39.8618 265.796 39.8618V39.8787Z" fill="#FFF8F5"/>
<path d="M253.845 6.0663C252.526 9.08255 251.206 12.0988 249.887 15.1235C247.416 15.1066 244.954 15.0982 242.491 15.0728V5.99026C246.282 6.01561 250.063 6.04096 253.854 6.0663H253.845Z" fill="#FFF8F5"/>
<path d="M13.4134 57.9424C13.9765 57.5791 14.5732 57.3172 15.1951 57.1482C15.817 56.9792 16.481 56.8947 17.1785 56.8947C20.1116 56.8947 23.154 58.2381 26.3057 60.9333H26.9696V48.1079C25.9863 47.4066 24.6248 46.773 22.8935 46.2069C21.1538 45.6324 19.2796 45.3535 17.2878 45.3535C14.674 45.3535 12.2788 45.776 10.0936 46.6293C7.9085 47.4742 6.08475 48.6402 4.63079 50.1187C3.16843 51.5888 2.03384 53.3124 1.22703 55.2894C0.411802 57.2665 0.00839233 59.3787 0.00839233 61.6261C0.00839233 63.8735 0.411802 66.0786 1.21862 68.0641C2.01704 70.058 3.15163 71.7901 4.62239 73.2602C6.09315 74.7387 7.9169 75.8878 10.102 76.7327C12.2872 77.5775 14.6824 78 17.2962 78C19.288 78 21.1622 77.7127 22.9103 77.1551C24.6584 76.5975 26.0115 75.9638 26.9864 75.2626V62.4372H26.3225C23.1708 65.1239 20.1369 66.4757 17.1953 66.4757C16.254 66.4757 15.3716 66.3321 14.5732 66.0533C13.7663 65.7745 13.0688 65.2506 12.4721 64.4987C11.8754 63.7383 11.5812 62.792 11.5812 61.6768C11.5812 60.8234 11.7493 60.0799 12.0855 59.4378C12.43 58.8042 12.8755 58.3057 13.4302 57.9508L13.4134 57.9424Z" fill="#FFF8F5"/>
<path d="M58.6289 48.6908C56.9648 46.4603 54.5864 45.3451 51.4851 45.3451C47.8629 45.3451 45.2071 46.7138 43.5178 49.4512C41.8369 52.1971 40.6351 56.9792 39.9291 63.8143H39.4165C40.0216 56.4554 40.6183 49.0879 41.2234 41.729C37.1641 41.7628 33.1048 41.805 29.0455 41.8388V77.3494H41.2234V70.8607C41.2234 69.4666 41.2486 68.2753 41.2738 67.2699C41.3075 66.273 41.3831 65.2591 41.4755 64.2283C41.5764 63.1976 41.7277 62.3358 41.9294 61.6599C42.1311 60.9755 42.4 60.3587 42.7278 59.8096C43.0472 59.2519 43.4422 58.8464 43.9212 58.5845C44.4003 58.3226 44.955 58.1958 45.5937 58.1958C46.1063 58.1958 46.5518 58.2888 46.9384 58.4746C47.325 58.6605 47.6444 58.9562 47.8797 59.3533C48.115 59.7589 48.3083 60.1729 48.4512 60.6122C48.6024 61.0431 48.7033 61.6092 48.7705 62.2935C48.8378 62.9863 48.8798 63.6031 48.8966 64.1438C48.9134 64.693 48.9218 65.3774 48.9218 66.2138V77.3579H61.1166V59.4801C61.1166 54.5206 60.2845 50.9298 58.6289 48.6993V48.6908Z" fill="#FFF8F5"/>
<path d="M96.0115 55.3739C95.1794 53.3715 94.028 51.6311 92.5573 50.161C91.0781 48.6824 89.2544 47.5165 87.0776 46.6462C84.9009 45.7844 82.5393 45.3451 79.9759 45.3451C77.8917 45.3451 75.9334 45.6239 74.1097 46.1731C72.2775 46.7307 70.6723 47.508 69.2772 48.5134C67.8905 49.5188 66.697 50.7017 65.6969 52.0619C64.6968 53.4222 63.9404 54.9261 63.4193 56.5736C62.8983 58.2212 62.6461 59.9363 62.6461 61.719C62.6461 63.9664 63.0495 66.0786 63.8648 68.0557C64.68 70.0327 65.823 71.7563 67.2937 73.2348C68.7729 74.7049 70.5967 75.8624 72.7818 76.7242C74.9669 77.5691 77.3622 78 79.9759 78C82.5897 78 85.0017 77.5691 87.1953 76.7242C89.3804 75.8709 91.2042 74.7049 92.6581 73.2348C94.1205 71.7563 95.2467 70.0327 96.0535 68.0557C96.8519 66.0786 97.2637 63.9664 97.2637 61.719C97.2637 59.4716 96.8435 57.3678 96.0115 55.3739ZM84.5899 65.276C83.3965 66.0786 81.8585 66.4757 79.9759 66.4757C78.0934 66.4757 76.5722 66.0786 75.404 65.276C74.2358 64.4733 73.6559 63.2905 73.6559 61.7275C73.6559 60.1644 74.2526 58.9731 75.4376 58.162C76.6226 57.3594 78.1438 56.9454 79.9843 56.9454C81.8249 56.9454 83.4049 57.3509 84.5983 58.162C85.8002 58.9731 86.3969 60.156 86.3969 61.7275C86.3969 63.299 85.8002 64.4733 84.5983 65.276H84.5899Z" fill="#FFF8F5"/>
<path d="M111.694 57.9424C112.257 57.5791 112.854 57.3172 113.476 57.1482C114.106 56.9792 114.77 56.8947 115.459 56.8947C118.392 56.8947 121.426 58.2381 124.586 60.9333H125.25V48.1079C124.267 47.4066 122.905 46.773 121.174 46.2069C119.434 45.6324 117.569 45.3535 115.568 45.3535C112.955 45.3535 110.559 45.776 108.374 46.6293C106.189 47.4742 104.365 48.6402 102.911 50.1187C101.457 51.5888 100.323 53.3124 99.5077 55.2894C98.6925 57.2665 98.289 59.3787 98.289 61.6261C98.289 63.8735 98.6925 66.0786 99.4993 68.0641C100.306 70.058 101.441 71.7901 102.903 73.2602C104.374 74.7387 106.198 75.8878 108.383 76.7327C110.568 77.5775 112.963 78 115.577 78C117.577 78 119.451 77.7127 121.199 77.1551C122.947 76.5975 124.301 75.9638 125.267 75.2626V62.4372H124.603C121.443 65.1239 118.409 66.4757 115.476 66.4757C114.526 66.4757 113.644 66.3321 112.845 66.0533C112.039 65.7745 111.341 65.2506 110.744 64.4987C110.156 63.7383 109.853 62.792 109.853 61.6768C109.853 60.8234 110.022 60.0799 110.366 59.4378C110.702 58.8042 111.156 58.3057 111.711 57.9508L111.694 57.9424Z" fill="#FFF8F5"/>
<path d="M159.649 55.3739C158.817 53.3715 157.666 51.6311 156.195 50.161C154.716 48.6824 152.892 47.5165 150.715 46.6462C148.539 45.7844 146.169 45.3451 143.614 45.3451C141.53 45.3451 139.571 45.6239 137.739 46.1731C135.907 46.7307 134.302 47.508 132.915 48.5134C131.528 49.5188 130.327 50.7017 129.326 52.0619C128.335 53.4222 127.57 54.9261 127.057 56.5736C126.536 58.2212 126.284 59.9363 126.284 61.719C126.284 63.9664 126.687 66.0786 127.503 68.0557C128.309 70.0327 129.452 71.7563 130.932 73.2348C132.411 74.7049 134.235 75.8624 136.42 76.7242C138.605 77.5691 141 78 143.614 78C146.228 78 148.648 77.5691 150.833 76.7242C153.018 75.8709 154.842 74.7049 156.296 73.2348C157.758 71.7563 158.885 70.0327 159.691 68.0557C160.498 66.0786 160.902 63.9664 160.902 61.719C160.902 59.4716 160.481 57.3678 159.649 55.3739ZM148.228 65.276C147.034 66.0786 145.496 66.4757 143.614 66.4757C141.731 66.4757 140.21 66.0786 139.042 65.276C137.874 64.4733 137.285 63.2905 137.285 61.7275C137.285 60.1644 137.874 58.9731 139.059 58.162C140.252 57.3594 141.765 56.9454 143.614 56.9454C145.463 56.9454 147.034 57.3509 148.228 58.162C149.421 58.9731 150.018 60.156 150.018 61.7275C150.018 63.299 149.421 64.4733 148.228 65.276Z" fill="#FFF8F5"/>
<path d="M204.445 49.8146C207.168 52.8139 208.521 56.8778 208.521 62.0063C208.521 62.6484 208.504 63.2483 208.462 63.8397C208.353 65.5802 208.126 67.1179 207.722 69.0442C207.016 72.466 206.1 75.5921 205.562 77.3579H192.889C193.057 77.0368 193.653 75.8793 194.351 74.367C195.477 71.9253 196.032 70.7002 196.41 69.2977C197.259 66.1124 196.923 63.4173 196.771 62.4625C196.427 60.2827 195.704 58.5592 195.107 57.4017C195.452 58.6774 195.839 60.5784 195.847 62.9103C195.864 65.5971 195.889 71.3254 191.872 74.7556C189.695 76.6144 187.148 77.1044 186.426 77.2143C185.552 77.3494 184.148 77.5522 182.408 77.096C181.77 76.927 180.173 76.4877 178.677 75.0767C178.425 74.8401 177.248 73.6911 176.542 71.7478C175.996 70.2439 176.029 69.0104 176.029 67.8952C176.029 64.3382 177.223 61.55 179.593 59.5223C181.963 57.4861 185.552 56.4047 190.367 56.2526V55.6696L177.66 57.1989H176.668V45.3198H193.485C198.057 45.3198 201.705 46.8152 204.428 49.8146H204.445ZM186.35 59.9532C185.274 60.8826 184.736 62.0908 184.736 63.5947C184.736 64.448 184.938 65.1662 185.341 65.7407C185.737 66.3152 186.308 66.6109 187.048 66.6109C187.98 66.6109 188.779 66.1462 189.434 65.2253C190.098 64.3044 190.426 62.7836 190.426 60.6545V58.3564C188.779 58.4916 187.426 59.0238 186.35 59.9532Z" fill="#FFF8F5"/>
<path d="M229.792 54.1066V45.8689H224.43V40.7151H215.177C215.177 42.7428 214.664 44.1707 213.639 44.9987C212.614 45.8267 211.017 46.2407 208.832 46.2407V53.1265H212.16V66.8559C212.16 70.0243 213.042 72.5589 214.799 74.4853C216.564 76.3947 219.026 77.3579 222.195 77.3579C225.363 77.3579 227.893 76.4961 229.792 74.7725V65.352H229.153C228.582 66.2307 227.876 66.6616 227.044 66.6616C226.077 66.6616 225.397 66.349 225.01 65.7322C224.623 65.1155 224.43 64.2283 224.43 63.0962V53.2786L229.792 54.115V54.1066Z" fill="#FFF8F5"/>
<path d="M262.889 58.3648C262.889 56.3202 262.502 54.453 261.704 52.7886C260.914 51.1157 259.846 49.747 258.493 48.674C257.14 47.6009 255.577 46.7899 253.803 46.2069C252.039 45.6324 250.148 45.3451 248.147 45.3451C245.777 45.3451 243.575 45.7591 241.558 46.5955C239.533 47.4235 237.827 48.5641 236.44 50.0004C235.053 51.4367 233.961 53.135 233.188 55.0866C232.414 57.0383 232.028 59.1168 232.028 61.2966C232.028 63.4764 232.448 65.6393 233.297 67.6079C234.137 69.5765 235.322 71.2831 236.818 72.7194C238.314 74.1558 240.172 75.2879 242.399 76.1074C244.618 76.9354 247.03 77.3494 249.643 77.3494C252.081 77.3494 254.341 77.096 256.4 76.5975C258.468 76.099 260.157 75.4569 261.46 74.6711V63.3327H260.771C257.905 65.352 254.577 66.3574 250.778 66.3574C248.702 66.3574 246.962 65.9519 245.584 65.1408C244.197 64.3382 243.424 63.0877 243.231 61.398L262.502 62.2513C262.771 60.7727 262.905 59.4801 262.905 58.3648H262.889ZM243.626 58.6183C244.046 57.6551 244.685 56.9201 245.525 56.43C246.374 55.9315 247.307 55.6865 248.324 55.6865C249.341 55.6865 250.24 55.9062 250.954 56.354C251.677 56.7933 252.165 57.4016 252.417 58.1705L243.626 58.6183Z" fill="#FFF8F5"/>
<path d="M272.335 76.7665C277.116 76.7665 280.992 72.8703 280.992 68.0641C280.992 63.258 277.116 59.3618 272.335 59.3618C267.554 59.3618 263.679 63.258 263.679 68.0641C263.679 72.8703 267.554 76.7665 272.335 76.7665Z" fill="#FFF8F5"/>
<path d="M52.9391 36.4822C52.8719 36.7442 52.687 36.9807 52.3676 37.2004C50.8464 38.2481 46.5602 38.7381 41.9966 38.9662C37.8028 39.169 33.3737 39.169 30.6087 39.169C27.4907 39.169 13.01 39.169 12.388 36.4822C12.0855 35.1642 12.4973 33.8293 12.4973 33.8293C12.6065 33.4913 12.741 33.2041 12.8671 32.9591C12.9679 32.7647 13.0688 32.6127 13.1612 32.4775L13.178 32.5028C13.4302 32.9084 13.7075 33.2801 14.0185 33.5927C14.8925 34.5221 15.9263 35.029 17.002 35.029H19.246C19.1535 34.3362 19.0527 33.6519 18.9686 32.9422C18.9014 32.4352 18.851 31.9367 18.7922 31.4383C18.3635 27.8137 18.0442 24.2905 17.8088 20.8603C17.9181 20.8772 18.0442 20.8772 18.1534 20.8772C18.6157 20.8772 19.0695 20.8434 19.5065 20.7673C22.3304 20.3364 24.7593 18.5622 26.2636 16.0613C27.289 14.3462 27.8941 12.2931 27.8941 10.088C27.8941 9.89364 27.8941 9.69931 27.8773 9.51344C30.5247 8.44888 32.4072 5.64385 32.4072 2.35724C33.2561 2.34034 33.7687 2.35724 33.7687 2.35724C33.7687 2.35724 34.9622 2.39949 36.6682 2.61916C39.0551 2.92332 42.442 3.59078 45.0222 5.00174C45.6273 5.33969 46.182 5.71144 46.6778 6.12544C46.6778 6.12544 47.6191 6.98722 48.2495 8.24611C49.8379 11.406 47.2409 22.7782 46.3837 31.4805C46.3585 31.7847 46.3165 32.1226 46.2828 32.4775C46.2156 32.6296 46.1316 32.7816 46.0307 32.9422C45.2323 34.0912 43.812 34.2264 43.5178 34.2433C42.0134 34.37 40.4754 34.4799 38.887 34.5559C35.769 34.708 32.8106 34.7249 29.9868 34.6573C29.9027 34.6319 29.8103 34.6573 29.743 34.708C29.6842 34.7502 29.659 34.8094 29.6422 34.8685C29.6254 35.0121 29.743 35.1558 29.9027 35.1642C30.6087 35.2149 41.0805 35.1473 42.4673 35.1135C43.4001 35.0882 45.7786 35.0544 47.8124 35.0206H48.3335C48.4512 35.0206 48.5772 35.0206 48.6949 34.9952C49.9892 34.8601 51.2246 33.9645 52.1491 32.4944L52.1659 32.469C52.3508 32.7394 52.6113 33.1787 52.8046 33.7702C52.8046 33.7702 53.2417 35.1304 52.9223 36.4653L52.9391 36.4822Z" fill="#FFF8F5"/>
</g>
<defs>
<clipPath id="clip0_2_3">
<rect width="281" height="78" fill="white"/>
</clipPath>
</defs>
</svg>
